<?xml version="1.0" encoding="UTF-8" standalone="no"?>
<!-- Created with Inkscape (http://www.inkscape.org/) -->

<svg
   width="51.302296mm"
   height="41.155727mm"
   viewBox="0 0 51.302296 41.155727"
   version="1.1"
   id="svg5"
   xmlns:xlink="http://www.w3.org/1999/xlink"
   xmlns="http://www.w3.org/2000/svg"
   xmlns:svg="http://www.w3.org/2000/svg">
  <defs
     id="defs2">
    <linearGradient
       id="linearGradient28096">
      <stop
         style="stop-color:#ffffff;stop-opacity:1;"
         offset="0"
         id="stop28092" />
      <stop
         style="stop-color:#ffffff;stop-opacity:0;"
         offset="1"
         id="stop28094" />
    </linearGradient>
    <rect
       x="-333.72186"
       y="134.29732"
       width="208.45569"
       height="238.94525"
       id="rect12068" />
    <rect
       x="-333.72186"
       y="134.29732"
       width="208.45569"
       height="238.94525"
       id="rect12068-3" />
    <linearGradient
       xlink:href="#linearGradient28096"
       id="linearGradient28098"
       x1="-328.92267"
       y1="233.71182"
       x2="-231.96266"
       y2="233.71182"
       gradientUnits="userSpaceOnUse" />
  </defs>
  <g
     id="layer1"
     transform="translate(78.902264,-77.815718)">
    <g
       aria-label="S"
       transform="matrix(0.26458333,0,0,0.26458333,8.8576881,36.092163)"
       id="text12066"
       style="font-size:192px;line-height:1.25;font-family:'Leckerli One';-inkscape-font-specification:'Leckerli One';white-space:pre;shape-inside:url(#rect12068);fill:#ffffff;stroke:#20242b;stroke-width:4.0252">
      <path
         d="m -301.27466,265.10383 q 0,16.704 14.208,16.704 15.552,0 20.928,-10.752 1.92,-3.84 1.92,-9.792 0,-6.144 -2.88,-11.328 -4.8,-8.256 -16.512,-18.24 -19.392,-16.512 -19.392,-34.176 0,-17.856 11.136,-27.456 11.136,-9.6 25.536,-9.6 14.4,0 22.848,7.296 8.448,7.296 8.448,21.888 0,9.6 -6.528,16.704 -6.336,7.104 -16.896,8.832 4.8,4.032 9.6,8.256 4.608,4.224 8.448,9.216 8.448,11.328 8.448,27.072 0,10.944 -5.184,19.776 -4.992,8.832 -13.248,14.976 -8.064,5.952 -18.24,9.216 -10.176,3.264 -19.008,3.264 -18.816,0 -29.184,-8.64 -12.096,-9.792 -12.096,-28.224 0,-12.096 7.872,-23.424 7.872,-11.328 16.704,-11.328 6.912,0 6.912,4.224 0,6.144 -1.92,12.288 -1.92,5.952 -1.92,13.248 z m 37.248,-54.528 q 10.944,-10.944 10.944,-22.848 0,-3.648 -3.84,-6.144 -4.224,-2.304 -8.832,-2.304 -10.368,0 -14.976,6.72 2.304,8.256 6.72,14.016 4.608,5.76 9.984,10.56 z"
         id="path882" />
    </g>
    <g
       aria-label="L"
       transform="matrix(0.26458333,0,0,0.26458333,25.979785,36.51449)"
       id="text12066-6"
       style="font-size:192px;line-height:1.25;font-family:'Leckerli One';-inkscape-font-specification:'Leckerli One';white-space:pre;shape-inside:url(#rect12068-3);fill:#4abdac;stroke:#20242b;stroke-width:4.0252">
      <path
         d="m -208.15466,260.30383 q 2.88,0 2.88,6.528 0,13.632 -12.672,26.496 -12.672,12.672 -30.912,12.864 -12.864,0 -29.76,-10.176 -12.096,12.864 -30.144,12.864 -11.904,0 -17.472,-5.952 -5.568,-5.952 -5.568,-15.744 0,-9.792 7.104,-14.592 7.296,-4.992 18.432,-4.992 5.952,0 11.136,0.576 0,-23.424 5.184,-45.696 -6.336,-3.264 -10.944,-7.296 -4.416,-4.032 -4.416,-6.336 0,-6.144 2.688,-6.144 3.84,0 7.872,2.304 4.224,2.112 9.024,3.264 11.904,-34.368 32.64,-44.352 7.296,-3.456 15.36,-3.456 30.336,0 30.336,25.536 0,14.592 -10.944,25.152 -15.168,14.592 -46.08,15.36 -2.112,16.128 -2.112,38.208 0,5.376 -1.344,12.096 6.72,3.456 13.056,6.336 6.336,2.88 15.552,2.88 4.8,0 9.408,-4.032 4.8,-4.032 8.832,-8.832 4.224,-4.8 7.488,-8.832 3.264,-4.032 5.376,-4.032 z m -29.952,-81.024 q -16.128,0 -23.424,30.72 13.824,-1.152 23.232,-7.68 9.6,-6.72 9.6,-13.44 0,-9.6 -9.408,-9.6 z m -75.072,109.248 q 0.192,5.376 7.488,5.376 7.296,0 9.216,-8.448 -5.376,-2.688 -8.832,-2.688 -7.68,0 -7.872,5.76 z"
         id="path879" />
    </g>
  </g>
</svg>
