<?xml version="1.0" encoding="UTF-8" standalone="no"?>
<!-- Created with Inkscape (http://www.inkscape.org/) -->

<svg
   width="74.378815mm"
   height="74.378807mm"
   viewBox="0 0 74.378816 74.378807"
   version="1.1"
   id="svg5"
   xml:space="preserve"
   inkscape:version="1.2.1 (9c6d41e410, 2022-07-14)"
   sodipodi:docname="synchtify-light.svg"
   inkscape:export-filename="synchtify-light.png"
   inkscape:export-xdpi="96"
   inkscape:export-ydpi="96"
   xmlns:inkscape="http://www.inkscape.org/namespaces/inkscape"
   xmlns:sodipodi="http://sodipodi.sourceforge.net/DTD/sodipodi-0.dtd"
   xmlns="http://www.w3.org/2000/svg"
   xmlns:svg="http://www.w3.org/2000/svg"><sodipodi:namedview
     id="namedview7"
     pagecolor="#505050"
     bordercolor="#ffffff"
     borderopacity="1"
     inkscape:showpageshadow="0"
     inkscape:pageopacity="0"
     inkscape:pagecheckerboard="1"
     inkscape:deskcolor="#505050"
     inkscape:document-units="mm"
     showgrid="false"
     inkscape:zoom="1.2646927"
     inkscape:cx="183.83913"
     inkscape:cy="183.83913"
     inkscape:window-width="1920"
     inkscape:window-height="1003"
     inkscape:window-x="0"
     inkscape:window-y="40"
     inkscape:window-maximized="1"
     inkscape:current-layer="layer1" /><defs
     id="defs2"><linearGradient
       id="linearGradient5091"
       inkscape:swatch="solid"><stop
         style="stop-color:#20242b;stop-opacity:1;"
         offset="0"
         id="stop5089" /></linearGradient></defs><g
     inkscape:label="Layer 1"
     inkscape:groupmode="layer"
     id="layer1"
     transform="translate(45.575415,-102.53383)"><path
       id="path5147"
       style="fill:#4abdac;stroke-width:1.36723;fill-opacity:1"
       d="m 28.803402,139.72323 a 37.189408,37.189408 0 0 1 -37.1894088,37.18941 37.189408,37.189408 0 0 1 -37.1894082,-37.18941 37.189408,37.189408 0 0 1 37.1894082,-37.1894 37.189408,37.189408 0 0 1 37.1894088,37.1894 z" /></g><g
     inkscape:groupmode="layer"
     id="layer2"
     inkscape:label="Layer 2"
     transform="translate(15.427238,15.377399)"><path
       style="fill:#23272f;fill-opacity:1;stroke:none;stroke-width:0.264583"
       d="m 24.247853,44.179469 c -2.649833,-1.87008 -6.597682,-2.159 -9.525005,-0.69374 -2.558203,1.28058 -4.044076,4.16428 -2.382678,6.77519 2.662448,4.18412 11.678183,3.98303 13.631973,-0.78979 1.07156,-2.61778 0.39237,-6.468 0.39237,-9.26041 v -20.10834 c 1.68797,1.65201 3.46025,2.85589 5.82084,3.27668 0.76411,0.13621 2.17328,0.36349 2.44686,-0.66495 0.35005,-1.31548 -4.14477,-2.02702 -5.09249,-2.75259 -3.17576,-2.43128 -2.35704,-4.76665 -3.25932,-8.04573 -0.19563,-0.71098 -0.96263,-1.25274 -1.60853,-0.64449 -1.3049,1.22885 -0.42402,6.574 -0.42402,8.30192 v 24.60625 m 13.314624,-33.06557 c -0.99695,0.67947 -0.16615,1.66248 0.71332,1.80555 3.59701,0.58507 7.72504,0.0392 11.37206,0.0392 0.99774,0 3.04667,0.38016 3.80391,-0.42403 1.34435,-1.42737 -1.46685,-1.69111 -2.21641,-1.69264 h -9.78959 c -1.06574,0 -2.96148,-0.35648 -3.88329,0.27194 m 0,6.35001 c -0.99695,0.67947 -0.16615,1.66248 0.71332,1.80554 3.59701,0.58507 7.72504,0.0392 11.37206,0.0392 0.99774,0 3.04667,0.38013 3.80391,-0.42402 1.34435,-1.42737 -1.46685,-1.69111 -2.21641,-1.69264 h -9.78959 c -1.06574,0 -2.96148,-0.35648 -3.88329,0.27194 m 0,6.35 c -0.99695,0.67947 -0.16615,1.66248 0.71332,1.80554 3.59701,0.58507 7.72504,0.0392 11.37206,0.0392 0.99774,0 3.04667,0.38016 3.80391,-0.42402 1.34435,-1.42737 -1.46685,-1.69111 -2.21641,-1.69264 h -9.78959 c -1.06574,0 -2.96148,-0.35648 -3.88329,0.27194 m -19.929212,20.97436 c 1.883807,-0.27834 4.319243,-0.032 5.760408,1.34647 2.43157,2.32622 -0.937266,4.52279 -3.114575,4.84425 -1.883807,0.27835 -4.319244,0.032 -5.760403,-1.34646 -2.431572,-2.32622 0.937234,-4.52279 3.11457,-4.84426 z"
       id="path1582"
       transform="translate(-11.638172,-10.741269)" /></g></svg>
